<svg width="29" height="28" viewBox="0 0 29 28" fill="none" xmlns="http://www.w3.org/2000/svg">
<rect width="28.0485" height="27.2858" rx="2" fill="white"/>
<path d="M21.013 7.85959H16.5852V9.11359H21.013V7.85959ZM18.8294 12.1677C18.3095 12.1677 17.8878 12.3446 17.5643 12.6986C17.2408 13.0525 17.0618 13.5329 17.0271 14.1397H20.5624C20.4585 12.825 19.8808 12.1677 18.8294 12.1677ZM18.9681 18.0837C19.332 18.0837 19.6844 17.9758 20.0252 17.7601C20.366 17.5443 20.5856 17.2511 20.6838 16.8803H22.5987C22.0211 18.95 20.7877 19.9849 18.8988 19.9849C17.6625 19.9849 16.6791 19.5399 15.9483 18.65C15.2176 17.7601 14.8522 16.5904 14.8522 15.1409C14.8522 13.7385 15.2291 12.5739 15.983 11.6469C16.7368 10.7198 17.7088 10.2563 18.8988 10.2563C19.6959 10.2563 20.3906 10.4856 20.9827 10.944C21.5748 11.4025 22.0167 12.0059 22.3085 12.7542C22.6002 13.5026 22.746 14.3386 22.746 15.2622C22.746 15.3768 22.7403 15.5353 22.7287 15.7375H17.0271C17.0271 16.4859 17.1932 17.064 17.5253 17.4719C17.8575 17.8798 18.3384 18.0837 18.9681 18.0837ZM7.40022 17.578H9.96508C11.1493 17.578 11.7414 17.0151 11.7414 15.8892C11.7414 14.6757 11.1666 14.0689 10.0171 14.0689H7.40022V17.578ZM7.40022 12.1474H9.8351C10.2857 12.1474 10.6424 12.0244 10.9052 11.7783C11.1681 11.5322 11.2995 11.1496 11.2995 10.6305C11.2995 9.65968 10.7507 9.17426 9.65314 9.17426H7.40022V12.1474ZM5 7H10.147C10.6496 7 11.0973 7.04719 11.4901 7.14158C11.8829 7.23597 12.2483 7.39609 12.5863 7.62194C12.9242 7.84779 13.1841 8.17309 13.3661 8.59783C13.5481 9.02257 13.6391 9.5417 13.6391 10.1552C13.6391 11.3755 13.1423 12.2621 12.1487 12.8149C12.8072 13.0306 13.304 13.4183 13.6391 13.9779C13.9741 14.5375 14.1416 15.2251 14.1416 16.0409C14.1416 16.5465 14.0709 17.0067 13.9293 17.4213C13.7878 17.8359 13.5972 18.1848 13.3575 18.468C13.1177 18.7511 12.8332 18.9905 12.5039 19.186C12.1747 19.3815 11.8252 19.5231 11.4555 19.6107C11.0858 19.6984 10.6987 19.7422 10.2944 19.7422H5V7Z" fill="black"/>
</svg>
