<svg width="29" height="28" viewBox="0 0 29 28" fill="none" xmlns="http://www.w3.org/2000/svg">
<rect width="28.0485" height="27.2858" rx="2" fill="white"/>
<path d="M22.6546 21.8913V15.5092C22.6546 12.0894 20.8293 10.4982 18.3956 10.4982C16.4317 10.4982 15.5514 11.5786 15.0611 12.337V10.7598H11.3608C11.4099 11.8046 11.3608 21.8913 11.3608 21.8913H15.0611V15.6748C15.0611 15.3431 15.0848 15.0103 15.183 14.7729C15.45 14.1078 16.0589 13.4196 17.0806 13.4196C18.4199 13.4196 18.9549 14.4401 18.9549 15.9364V21.8918L22.6546 21.8913ZM7.46262 9.24035C8.75231 9.24035 9.55655 8.38488 9.55655 7.31634C9.53281 6.2246 8.75285 5.39394 7.48743 5.39394C6.22201 5.39394 5.39404 6.22406 5.39404 7.31634C5.39404 8.38488 6.1972 9.24035 7.43942 9.24035H7.46262ZM9.31274 21.8913V10.7598H5.61304V21.8913H9.31274Z" fill="black"/>
</svg>
