<svg width="29" height="28" viewBox="0 0 29 28" fill="none" xmlns="http://www.w3.org/2000/svg">
<rect x="0.145752" width="28.0485" height="27.2858" rx="2" fill="white"/>
<path d="M20.8757 6.4101L19.5957 7.4101L14.1457 11.4601L8.6957 7.3701L7.4157 6.3701C7.11416 6.12064 6.74605 5.96514 6.35699 5.92285C5.96793 5.88056 5.57501 5.95334 5.22691 6.13218C4.87881 6.31102 4.59083 6.58806 4.39864 6.92897C4.20646 7.26988 4.11851 7.65969 4.1457 8.0501V19.6401C4.1457 20.0008 4.28899 20.3467 4.54404 20.6018C4.79909 20.8568 5.14501 21.0001 5.5057 21.0001H8.6957V13.2801L14.1457 17.3701L19.5957 13.2801V21.0001H22.7857C23.1464 21.0001 23.4923 20.8568 23.7474 20.6018C24.0024 20.3467 24.1457 20.0008 24.1457 19.6401V8.0501C24.1645 7.66306 24.0704 7.2789 23.875 6.94432C23.6795 6.60974 23.391 6.33914 23.0447 6.16543C22.6983 5.99171 22.3089 5.92235 21.9239 5.96579C21.5388 6.00923 21.1747 6.16358 20.8757 6.4101Z" fill="black"/>
</svg>
