<svg width="12" height="14" viewBox="0 0 12 14" fill="none" xmlns="http://www.w3.org/2000/svg">
<path d="M11.9224 6.61915C11.8748 6.4964 11.8035 6.38425 11.7124 6.28915L6.71244 1.28915C6.6192 1.19591 6.50851 1.12195 6.38669 1.07149C6.26487 1.02103 6.1343 0.995056 6.00244 0.995056C5.73614 0.995056 5.48075 1.10084 5.29244 1.28915C5.1992 1.38239 5.12524 1.49308 5.07478 1.6149C5.02432 1.73672 4.99835 1.86729 4.99835 1.99915C4.99835 2.26545 5.10414 2.52084 5.29244 2.70915L8.59244 5.99915H1.00244C0.737225 5.99915 0.482871 6.10451 0.295335 6.29204C0.107798 6.47958 0.00244141 6.73393 0.00244141 6.99915C0.00244141 7.26436 0.107798 7.51872 0.295335 7.70625C0.482871 7.89379 0.737225 7.99915 1.00244 7.99915H8.59244L5.29244 11.2891C5.19871 11.3821 5.12432 11.4927 5.07355 11.6146C5.02278 11.7364 4.99664 11.8671 4.99664 11.9991C4.99664 12.1312 5.02278 12.2619 5.07355 12.3837C5.12432 12.5056 5.19871 12.6162 5.29244 12.7091C5.3854 12.8029 5.49601 12.8773 5.61786 12.928C5.73972 12.9788 5.87043 13.0049 6.00244 13.0049C6.13445 13.0049 6.26516 12.9788 6.38702 12.928C6.50888 12.8773 6.61948 12.8029 6.71244 12.7091L11.7124 7.70915C11.8035 7.61404 11.8748 7.5019 11.9224 7.37915C12.0225 7.13569 12.0225 6.86261 11.9224 6.61915Z" fill="black"/>
</svg>
