<svg width="24" height="17" viewBox="0 0 24 17" fill="none" xmlns="http://www.w3.org/2000/svg">
<path d="M8.62 2.14C8.06 2.14 7.54 2.58 7.54 3.22C7.54 3.86 8.06 4.3 8.62 4.3C9.18 4.3 9.7 3.86 9.7 3.22C9.7 2.58 9.18 2.14 8.62 2.14ZM16.04 2.14C15.48 2.14 14.96 2.58 14.96 3.22C14.96 3.86 15.48 4.3 16.04 4.3C16.6 4.3 17.12 3.86 17.12 3.22C17.12 2.58 16.6 2.14 16.04 2.14Z" fill="white"/>
<path d="M3.8 12.22C6.4 14.12 9.68 15.12 12.76 15.12C16 15.12 19.24 14.08 21.72 12.3L20.92 11.24C18.16 12.9 16.06 13.8 12.76 13.8C9.46 13.8 7.22 12.86 4.48 11.16L3.8 12.22Z" fill="white"/>
</svg>
