<svg width="29" height="28" viewBox="0 0 29 28" fill="none" xmlns="http://www.w3.org/2000/svg">
<rect width="28.0485" height="27.2858" rx="2" fill="white"/>
<path d="M22.2606 7.93869C21.6119 8.26279 20.9259 8.47705 20.2239 8.57478C20.9645 8.06523 21.5195 7.26362 21.7859 6.31864C21.09 6.79577 20.3281 7.13194 19.5334 7.31254C19.0023 6.64918 18.295 6.20762 17.5224 6.0571C16.7499 5.90658 15.9558 6.05562 15.2647 6.48084C14.5736 6.90605 14.0247 7.5834 13.7039 8.40665C13.3831 9.2299 13.3086 10.1525 13.4922 11.0297C12.085 10.9477 10.7085 10.5258 9.45208 9.79117C8.19569 9.05659 7.08754 8.02585 6.19961 6.7659C5.88818 7.39222 5.72453 8.10151 5.72495 8.82326C5.72384 9.49352 5.86667 10.1537 6.14071 10.745C6.41476 11.3363 6.81152 11.8404 7.29566 12.2124C6.73295 12.1948 6.18225 12.0209 5.69042 11.7056V11.7552C5.69464 12.6944 5.9804 13.603 6.49936 14.3274C7.01831 15.0518 7.73862 15.5476 8.53842 15.7308C8.23054 15.8387 7.91089 15.8956 7.58909 15.8998C7.36633 15.8968 7.14413 15.8735 6.92456 15.8302C7.15232 16.6381 7.59308 17.3441 8.18551 17.85C8.77794 18.3559 9.49257 18.6365 10.23 18.6529C8.98479 19.7812 7.44745 20.397 5.86303 20.4021C5.57455 20.4032 5.2863 20.3833 5 20.3425C6.61769 21.5454 8.50288 22.1839 10.4285 22.1812C11.7573 22.1971 13.0755 21.9079 14.3062 21.3305C15.5368 20.7531 16.6552 19.8991 17.5961 18.8184C18.537 17.7376 19.2814 16.4518 19.7859 15.036C20.2904 13.6202 20.5449 12.1028 20.5345 10.5725C20.5345 10.4035 20.5345 10.2246 20.5345 10.0457C21.2118 9.46413 21.7958 8.75112 22.2606 7.93869Z" fill="black"/>
</svg>
